<svg width="45" height="22" viewBox="0 0 45 22" fill="none" xmlns="http://www.w3.org/2000/svg">
<path d="M0.984913 5.86889C0.918207 6.25122 0.597308 6.88181 0.561971 8.18996C0.548038 8.31667 0.556813 8.41628 0.563395 8.49099C0.60508 8.96416 0.869473 9.11655 1.49568 9.38764C1.84136 9.60815 1.86846 9.63086 1.9628 10.7017L2.00449 11.1749C2.22827 13.715 3.28514 19.4444 3.65561 20.516C3.81962 20.9533 4.2297 21.6199 5.17603 21.5365C5.57449 21.5014 6.03669 21.3352 6.63514 21.0064C6.70546 20.9501 6.70843 20.6988 6.67113 20.2755C6.48026 18.1089 5.13344 11.6521 4.79557 7.81699C4.76486 7.46834 4.73414 7.11969 4.73272 6.81865L4.70201 6.47C4.59889 5.29954 4.13616 4.03527 2.69175 4.16252C2.46762 4.18226 2.22078 4.2291 1.95342 4.32795C1.52929 4.64138 1.19523 5.12255 0.984913 5.86889ZM10.6728 9.30697C10.6654 10.3617 10.5327 10.8502 9.62007 11.031C8.5829 11.2228 8.40122 11.4395 8.44729 11.9625L8.45607 12.0621C8.49995 12.5602 9.21183 12.9492 10.1918 12.9633C10.624 13.0256 10.9411 12.9224 11.0956 13.5362C11.1219 13.835 11.4623 15.1352 11.5707 15.226C11.8505 15.5527 12.3412 15.7103 12.914 15.6598C13.0385 15.6488 13.1381 15.6401 13.2604 15.6042C14.1819 15.523 14.2186 14.5159 14.1177 13.3703C14.0256 12.3244 14.2782 12.6284 15.6963 12.2023C16.7335 12.0105 17.1371 11.7491 17.091 11.2261C17.0471 10.7281 16.7682 10.1252 15.4732 10.2393L15.3238 10.2525C15.2739 10.2569 15.0769 10.2993 14.803 10.3234C14.28 10.3695 13.5717 10.3064 13.4949 9.4348L13.473 9.18576C13.2812 8.14859 13.1531 7.83362 12.7122 7.67169C12.3936 7.47388 11.785 7.40202 11.3616 7.43932C11.2371 7.45029 11.1148 7.48616 11.0422 7.51765C10.7522 7.64359 10.5807 8.26102 10.6728 9.30697ZM19.648 4.22473C19.5813 4.60705 19.2604 5.23765 19.225 6.5458C19.2111 6.67251 19.2199 6.77212 19.2265 6.84683C19.2681 7.32 19.5325 7.47239 20.1587 7.74348C20.5044 7.96399 20.5315 7.9867 20.6259 9.05756L20.6676 9.53072C20.8913 12.0709 21.9482 17.8002 22.3187 18.8719C22.4827 19.3092 22.8928 19.9757 23.8391 19.8924C24.2376 19.8573 24.6998 19.6911 25.2982 19.3623C25.3685 19.3059 25.3715 19.0547 25.3342 18.6313C25.1433 16.4647 23.7965 10.008 23.4586 6.17283C23.4279 5.82418 23.3972 5.47553 23.3958 5.17449L23.3651 4.82584C23.262 3.65538 22.7992 2.39111 21.3548 2.51835C21.1307 2.5381 20.8838 2.58494 20.6165 2.68379C20.1924 2.99722 19.8583 3.47839 19.648 4.22473ZM37.8088 7.84495C36.8961 8.02574 35.9586 8.20872 35.859 8.2175C35.6436 8.33686 35.5594 8.51996 35.5769 8.71919C35.5923 8.89351 35.6845 9.08616 35.8515 9.27223C36.2982 9.785 36.9427 9.97919 38.437 9.84755C38.9101 9.80587 39.4807 9.7305 40.1487 9.62146C42.1982 9.24014 42.7211 9.19406 42.8831 8.75315C43.0193 8.59057 43.0787 8.40966 43.0655 8.26024C43.0502 8.08591 42.9623 7.94308 42.7997 7.80682C42.4409 7.43688 41.7443 7.22218 40.9474 7.29238C40.7233 7.31213 40.5013 7.35678 40.2816 7.42633C39.9828 7.45266 38.846 7.65319 37.8088 7.84495ZM36.2349 12.1999C36.0921 12.2877 36.0034 12.421 36.0166 12.5705C36.021 12.6203 36.0503 12.6679 36.0795 12.7155C36.2143 13.1052 36.1966 13.7593 37.9647 13.6035L38.3383 13.5706C39.6765 13.3774 43.1909 12.8168 43.4809 12.6909C43.6465 12.5759 43.9871 12.1694 43.952 11.771C43.9235 11.4472 43.646 11.1454 42.8044 10.9937C42.5217 10.9182 42.1188 10.9035 41.5212 10.9562C40.9235 11.0088 40.1558 11.1266 39.1934 11.3118C37.0443 11.7019 36.5074 11.8747 36.2349 12.1999Z" fill="#7748EF"/>
</svg>
