<svg width="30" height="53" viewBox="0 0 30 53" fill="none" xmlns="http://www.w3.org/2000/svg">
<path fill-rule="evenodd" clip-rule="evenodd" d="M3.06581 27.7548C2.98503 26.877 3.62526 26.1071 4.4958 26.0351C9.42845 25.6271 14.351 25.0661 19.2963 24.5025C20.0767 24.4136 20.8577 24.3246 21.6393 24.2361C22.507 24.1379 23.297 24.7678 23.4038 25.643C23.5106 26.5183 22.8937 27.3074 22.026 27.4056C21.2486 27.4936 20.4703 27.5823 19.6911 27.6711C14.749 28.2344 9.77328 28.8015 4.78833 29.2138C3.91779 29.2858 3.14659 28.6326 3.06581 27.7548Z" fill="#7748EF" stroke="#7748EF" stroke-width="5" stroke-linecap="round"/>
<path fill-rule="evenodd" clip-rule="evenodd" d="M12.7012 48.6221C12.3175 47.8358 12.629 46.8902 13.397 46.5099C14.7037 45.8628 16.0009 45.1201 17.3548 44.3449C17.9138 44.0248 18.4826 43.6992 19.0656 43.3725C21.0163 42.2794 23.0799 41.2036 25.215 40.491C26.0276 40.2198 26.911 40.6729 27.1881 41.5031C27.4652 42.3333 27.031 43.2262 26.2184 43.4974C24.3688 44.1147 22.512 45.0717 20.5925 46.1473C20.0662 46.4422 19.5306 46.7489 18.9895 47.0586C17.603 47.8525 16.1806 48.6668 14.7867 49.357C14.0187 49.7374 13.085 49.4083 12.7012 48.6221Z" fill="#7748EF" stroke="#7748EF" stroke-width="5" stroke-linecap="round"/>
<path fill-rule="evenodd" clip-rule="evenodd" d="M11.7682 4.07215C12.0721 3.2449 12.9756 2.82507 13.7862 3.13444C18.1628 4.80477 22.0703 6.96404 25.6974 10.0537C26.3616 10.6196 26.45 11.628 25.8948 12.3061C25.3397 12.9843 24.3511 13.0753 23.6869 12.5095C20.376 9.68908 16.7907 7.69689 12.6856 6.13017C11.875 5.8208 11.4643 4.8994 11.7682 4.07215Z" fill="#7748EF" stroke="#7748EF" stroke-width="5" stroke-linecap="round"/>
</svg>
