<svg width="268" height="100" viewBox="0 0 268 100" fill="none" xmlns="http://www.w3.org/2000/svg">
<path fill-rule="evenodd" clip-rule="evenodd" d="M120.014 96.3071C108.508 95.5821 96.589 94.3936 84.3432 92.7393C37.48 86.4156 9.75348 75.3682 4.15592 60.7968C1.87681 54.8569 3.43653 48.4674 8.66923 42.3172C21.4355 27.3131 54.4074 14.294 96.8663 7.49016C145.07 -0.234171 198.921 1.15531 248.499 11.4019C249.346 11.5776 249.891 12.4052 249.715 13.2502C249.539 14.0967 248.719 14.6502 247.864 14.4662C138.134 -8.21564 34.3153 17.0119 11.0583 44.3445C6.54806 49.6434 5.21191 54.802 7.08397 59.6768C10.0281 67.3472 24.0381 81.4437 84.7615 89.6394C180.569 102.57 240.532 84.9128 257.452 61.6774C262.051 55.3635 263.043 49.0339 260.321 43.3734C255.539 33.4236 239.778 26.8584 218.165 25.8619L218.14 25.8603C217.287 25.8066 216.633 25.0802 216.673 24.2251C216.713 23.3622 217.447 22.6951 218.312 22.7355C241.421 23.8263 257.778 30.8539 263.146 42.0181C266.351 48.6842 265.23 56.3195 259.987 63.5179C250.907 75.9886 231.045 86.0146 204.064 91.7445C180.356 96.7807 151.751 98.3068 120.014 96.3071Z" fill="#7748EF"/>
<path d="M120.014 96.3071C108.508 95.5821 96.589 94.3936 84.3432 92.7393C37.48 86.4156 9.75348 75.3682 4.15592 60.7968C1.87681 54.8568 3.43653 48.4674 8.66923 42.3172C21.4355 27.3131 54.4074 14.294 96.8663 7.49016C145.07 -0.234171 198.921 1.15531 248.499 11.4019C249.346 11.5776 249.891 12.4052 249.715 13.2502C249.539 14.0967 248.719 14.6502 247.864 14.4662C138.134 -8.21564 34.3153 17.0119 11.0583 44.3445C6.54806 49.6434 5.21191 54.802 7.08397 59.6768C10.0281 67.3472 24.0381 81.4437 84.7614 89.6394C180.569 102.57 240.532 84.9128 257.452 61.6774C262.051 55.3635 263.043 49.0339 260.321 43.3734C255.539 33.4236 239.778 26.8584 218.165 25.8619L218.14 25.8603C217.287 25.8066 216.633 25.0802 216.673 24.2251C216.713 23.3622 217.447 22.6951 218.312 22.7355C241.421 23.8263 257.778 30.8539 263.146 42.0181C266.351 48.6842 265.23 56.3195 259.987 63.5179C250.907 75.9886 231.045 86.0146 204.064 91.7445C180.356 96.7807 151.751 98.3068 120.014 96.3071" stroke="#7748EF" stroke-width="5"/>
</svg>
