<svg width="468" height="468" viewBox="0 0 468 468" fill="none" xmlns="http://www.w3.org/2000/svg">
<circle cx="234" cy="234" r="234" fill="white" fill-opacity="0.1"/>
<path d="M311.97 87.77H98.33V100.07H311.97V87.77Z" fill="#FFFDFE"/>
<path d="M311.97 87.77H98.33V296.07H311.97V87.77Z" fill="white" fill-opacity="0.15" stroke="#0E0108" stroke-width="0.5" stroke-linecap="round" stroke-linejoin="round"/>
<path d="M109.17 93.45C109.17 91.79 110.93 90.45 113.11 90.45C115.29 90.45 117.05 91.79 117.05 93.45C117.05 95.11 115.29 96.45 113.11 96.45C110.93 96.45 109.17 95.11 109.17 93.45Z" fill="#0B5487"/>
<path d="M138.13 93.45C138.13 91.79 139.89 90.45 142.07 90.45C144.25 90.45 146.01 91.79 146.01 93.45C146.01 95.11 144.25 96.45 142.07 96.45C139.89 96.45 138.13 95.11 138.13 93.45Z" fill="#0B5487"/>
<path d="M123.39 93.45C123.39 91.79 125.15 90.45 127.33 90.45C129.51 90.45 131.27 91.79 131.27 93.45C131.27 95.11 129.51 96.45 127.33 96.45C125.15 96.45 123.39 95.11 123.39 93.45Z" fill="#0B5487"/>
<path d="M282.59 142.44C283.5 142.48 284.4 142.42 285.28 142.32L286.7 109.44C285.83 109.26 284.94 109.13 284.03 109.09C274.82 108.69 267.03 115.84 266.63 125.05C266.23 134.26 273.38 142.05 282.59 142.45V142.44Z" fill="#0B5487"/>
<path d="M308.18 189.35C316.14 190 323.19 184.02 323.84 176.05L326.23 146.77C326.88 138.81 320.9 131.76 312.93 131.11C304.97 130.46 297.92 136.44 297.27 144.41L294.88 173.69C294.23 181.65 300.21 188.7 308.18 189.35Z" fill="#FB9997"/>
<path d="M311.7 131.01L314.17 131.21C321.46 131.8 326.93 138.25 326.33 145.54L325.48 155.92C315.66 162.98 302.46 166.47 295.57 165.25L297.37 143.17C297.96 135.88 304.41 130.41 311.7 131.01Z" fill="#DA6D6C"/>
<path d="M276.96 111.23C277.25 107.85 278.1 104.66 279.39 101.71C279.43 101.58 279.46 101.49 279.48 101.44H279.51C284.6 90.0801 296.4 82.5901 309.52 83.6601C324.94 84.9201 336.68 97.5501 337.23 112.63C337.23 112.64 337.24 112.66 337.25 112.67C338.51 119.21 332.69 133.58 329.2 141.39C327.61 144.93 325.09 147.96 321.87 150.14C310.98 157.54 285.31 168.85 277.58 155.78C270.63 144.01 273.99 124.65 276.97 111.22L276.96 111.23Z" fill="#FB9997"/>
<path d="M284.25 135.48C284.25 135.48 287.32 138.97 292.65 136.17" stroke="#0E0108" stroke-width="0.5" stroke-linecap="round" stroke-linejoin="round"/>
<path d="M316.75 123.8C316.91 123.81 317.07 123.78 317.21 123.69C317.58 123.47 317.7 122.99 317.48 122.62C313.59 116.11 305 119.07 304.91 119.11C304.5 119.25 304.29 119.7 304.44 120.11C304.58 120.52 305.03 120.73 305.44 120.58C305.74 120.47 312.92 118.02 316.15 123.42C316.28 123.64 316.51 123.78 316.76 123.8H316.75Z" fill="#0E0108"/>
<path d="M275.71 117.21C275.81 116.69 275.91 116.18 276.02 115.67C279.29 115.74 282.06 117.22 282.11 117.24C282.49 117.45 282.62 117.92 282.42 118.3C282.21 118.68 281.74 118.81 281.36 118.61C281.32 118.59 278.69 117.17 275.72 117.21H275.71Z" fill="#0E0108"/>
<path d="M296.15 132.19C296.38 132.21 296.61 132.13 296.78 131.95C297.11 131.59 305.12 123.29 315.77 130.86C316.12 131.11 316.61 131.03 316.86 130.68C317.11 130.33 317.03 129.84 316.68 129.59C304.9 121.22 295.74 130.78 295.65 130.88C295.36 131.19 295.37 131.69 295.69 131.98C295.82 132.11 295.99 132.17 296.16 132.19H296.15Z" fill="#0E0108"/>
<path d="M274.66 123.23C277.97 123.54 281.71 125.02 285.27 128.95C285.56 129.27 285.54 129.76 285.22 130.05C284.9 130.34 284.41 130.32 284.12 130C280.83 126.38 277.43 125.01 274.44 124.73C274.51 124.23 274.59 123.73 274.66 123.23Z" fill="#0E0108"/>
<path d="M294.55 143.78C294.51 142.95 293.91 142.21 293.06 142.17C292.62 142.15 292.2 142.3 291.77 142.4C291.33 142.5 290.89 142.58 290.44 142.62C289.54 142.71 288.62 142.7 287.72 142.58C287.06 142.49 286.44 142.32 285.81 142.14C285.53 142.02 285.25 141.92 284.98 141.78C284.37 141.48 283.67 141.12 283 141.45C281.33 142.27 283.4 144.75 284.19 145.49C285.4 146.63 287 147.28 288.66 147.37C290.27 147.45 291.96 146.94 293.24 145.96C293.92 145.43 294.61 144.72 294.56 143.79L294.55 143.78Z" fill="#0E0108"/>
<path d="M338.63 118.96C338.45 114.3 338.17 109.57 336.71 105.11C335.37 101.03 333.23 97.28 330.48 93.98C324.65 87 316.19 82.85 307.16 82.14C304.57 81.94 291.05 87.49 292.37 87.34C294.45 87.1 296.45 86.46 298.52 86.13C300.62 85.8 302.76 85.68 304.88 85.75C309.18 85.89 313.47 86.76 317.37 88.62C324.25 91.9 329.91 97.8 332.59 104.98C334.03 108.83 334.47 112.85 334.68 116.9C333.14 116.35 331.5 116.02 329.78 115.94C328.87 115.9 327.97 115.96 327.09 116.06L325.67 148.94C326.54 149.12 327.43 149.25 328.34 149.29C337.55 149.69 345.34 142.54 345.74 133.33C346 127.42 343.14 122.11 338.63 118.95V118.96Z" fill="#0B5487"/>
<path d="M303.02 83.0801C301.73 83.1501 300.45 83.2601 299.18 83.3701C296.21 83.6301 293.25 83.9601 290.28 84.3101C288.82 84.4801 287.36 84.6701 285.9 84.8801C284.77 85.0401 283.62 85.1901 282.53 85.5801C281.35 86.0101 280.28 86.6801 279.59 87.7601C278.89 88.8601 278.76 90.2301 279.03 91.4801C279.24 92.4801 279.71 93.3301 280.34 94.0601C277.16 95.0201 274.27 97.0901 272.43 99.8501C271.41 101.38 270.73 103.56 271.99 105.16C273.01 106.45 274.79 106.65 276.32 106.41C277.43 106.24 278.5 105.82 279.5 105.27C279.22 105.94 279.09 106.66 279.22 107.41C279.57 109.44 281.72 109.98 283.5 109.83C285.77 109.64 287.89 108.55 289.93 107.61C292.08 106.62 294.23 105.6 296.39 104.63C304.36 101.06 313.07 98.0701 321.89 99.9101C324.01 100.35 326.07 101.05 327.97 102.08C329.93 103.14 331.12 103.31 332.58 104.98C325.15 85.5601 308.25 83.5901 303.01 83.0801H303.02Z" fill="black"/>
<path d="M326.15 163.65C326.15 163.65 315.27 186.81 294.78 171.86L284.81 176.71C284.81 176.71 262.38 170.47 249.92 184.04L199.54 261.57L165.2 227.79L155.79 247.17C155.79 247.17 193.45 314.45 211.17 312.51C228.89 310.57 261.56 278.73 261.56 278.73L259.9 305.31H429.35C429.35 305.31 442.36 303.93 429.35 269.32C419.25 242.45 383.46 189.23 367.94 166.76C361.9 158.02 349.84 155.39 341.08 161.41C340.16 162.04 333.16 166.31 332.39 167.11L326.16 163.66L326.15 163.65Z" fill="#FFB227"/>
<path d="M264.32 222.32L261.56 278.73" stroke="black" stroke-linecap="round" stroke-linejoin="round"/>
<path d="M360.68 227.23L383.94 276.52L304.19 289.81V305.31" stroke="black" stroke-linecap="round" stroke-linejoin="round"/>
<path d="M332.39 167.1C332.39 167.1 316.76 197.85 284.82 176.71" stroke="black" stroke-linecap="round" stroke-linejoin="round"/>
<path d="M303.73 290.88C297.4 287.63 283.1 280.46 282.69 282.01C282.16 284 289.6 288.92 289.6 288.92C289.6 288.92 277.65 289.02 271.11 288.62C268.63 288.47 266.29 290.13 265.52 292.56L263.51 298.86C263.51 298.86 275.29 301.58 281.78 302.59C286.4 303.31 297.63 304.48 303.73 305.1V290.88Z" fill="#FB9997"/>
<path d="M266.07 292.2L281.15 293.37" stroke="#050533" stroke-width="0.5" stroke-linecap="round" stroke-linejoin="round"/>
<path d="M264.84 296.23L279.92 297.41" stroke="#050533" stroke-width="0.5" stroke-linecap="round" stroke-linejoin="round"/>
<path d="M4.495 305H466.495C466.495 311.081 461.521 316 455.395 316H15.5951C9.4592 316 4.495 311.07 4.495 305Z" fill="#0D0314"/>
<path d="M155.79 302.9L108.89 182.87L226.75 118.49" stroke="#0E0108" stroke-width="2" stroke-linecap="round" stroke-linejoin="round"/>
<path d="M115.52 182.95C115.52 187.9 111.51 191.92 106.55 191.92C101.59 191.92 97.58 187.91 97.58 182.95C97.58 177.99 101.59 173.98 106.55 173.98C111.51 173.98 115.52 177.99 115.52 182.95Z" fill="#0E0108"/>
<path d="M170.02 304.95C169.26 293.6 159.83 284.62 148.29 284.62C136.75 284.62 127.32 293.6 126.56 304.95H170.03H170.02Z" fill="#0E0108"/>
<path d="M210.53 127.91L226.12 138.94L227.62 113.86L102.8 181.35L149.7 301.38" stroke="#0E0108" stroke-width="2" stroke-linecap="round" stroke-linejoin="round"/>
<path d="M214.3 144.74C215.17 140.49 219.32 137.76 223.56 138.63L258.05 145.7C262.3 146.57 265.03 150.72 264.16 154.96C263.29 159.21 259.14 161.94 254.9 161.07L220.41 154C216.16 153.13 213.43 148.98 214.3 144.74Z" fill="#0E0108"/>
<path d="M224.99 153.95C225.96 149.13 227.18 144.38 228.34 139.61L223.56 138.63C219.31 137.76 215.17 140.5 214.3 144.74C213.43 148.99 216.17 153.13 220.41 154L224.81 154.9C224.87 154.58 224.93 154.27 224.99 153.95Z" fill="#007C76"/>
<path d="M233.69 3.46997V46.1" stroke="black" stroke-linecap="round" stroke-linejoin="round"/>
<path d="M233.35 81.9201C240.552 81.9201 246.39 76.0819 246.39 68.8801C246.39 61.6783 240.552 55.8401 233.35 55.8401C226.148 55.8401 220.31 61.6783 220.31 68.8801C220.31 76.0819 226.148 81.9201 233.35 81.9201Z" fill="white"/>
<path d="M206.94 69.22L233.69 42.47L260.45 69.22H206.94Z" fill="black"/>
<path d="M205 298.48L170.87 226.32H94.57L133.21 305.23H208.2L207.48 303.71H262.46C265.35 303.71 267.7 301.36 267.7 298.47H205V298.48Z" fill="#0B5487"/>
<path d="M130.17 305.24L91.53 226.33H167.82L205.15 305.24H130.17Z" fill="#789BAE"/>
<path d="M262.46 305.24H191.4V300H267.7C267.7 302.89 265.35 305.24 262.46 305.24Z" fill="#789BAE"/>
<path d="M152.871 266.374C153.176 262.082 149.945 258.356 145.653 258.051C141.362 257.745 137.635 260.977 137.33 265.268C137.024 269.559 140.256 273.286 144.547 273.591C148.839 273.897 152.565 270.665 152.871 266.374Z" fill="#0B5487"/>
<path d="M112.02 114.31H73.46V152.87H112.02V114.31Z" fill="#007C76"/>
<path d="M88.91 121.23V145.95L102.82 132.05L88.91 121.23Z" fill="#FFFDFE"/>
<path d="M132.5 181.46H222.53C225.37 181.46 227.69 183.78 227.69 186.62C227.69 189.46 225.37 191.78 222.53 191.78H132.5C129.66 191.78 127.34 189.46 127.34 186.62C127.34 183.78 129.66 181.46 132.5 181.46Z" fill="#F43712"/>
<path d="M223.75 186.62H130.24" stroke="#0E0108" stroke-width="0.5" stroke-linecap="round" stroke-linejoin="round"/>
<path d="M145.92 189.63C147.582 189.63 148.93 188.282 148.93 186.62C148.93 184.957 147.582 183.61 145.92 183.61C144.258 183.61 142.91 184.957 142.91 186.62C142.91 188.282 144.258 189.63 145.92 189.63Z" fill="#0E0108"/>
<path d="M414.34 15.4399H331.68V64.3099H340.19L347.79 87.7699L358.35 64.3099H414.34V15.4399Z" fill="#007C76"/>
<path d="M354.12 45.2393V44.5092C354.12 37.8692 354.12 31.2392 354.12 24.5992C354.12 23.9392 354.27 23.3792 354.93 23.0992C355.6 22.8292 356.07 23.1493 356.56 23.5893C358.67 25.5093 360.81 27.3793 362.92 29.2893C364.86 31.0493 366.74 32.8792 368.13 35.1292C368.3 35.3992 368.46 35.6993 368.51 36.0093C368.62 36.6093 368.26 37.1593 367.7 37.3693C367.15 37.5793 366.5 37.4092 366.19 36.8792C365.03 34.9092 363.46 33.2893 361.8 31.7693C360.22 30.3193 358.6 28.9293 356.99 27.5093C356.94 27.4593 356.87 27.4393 356.73 27.3693V28.0393C356.73 35.2293 356.73 42.4193 356.73 49.6093C356.73 52.1393 355.22 54.2892 352.79 55.2792C350.32 56.2892 347.47 55.7893 345.75 54.0493C343.46 51.7293 343.8 47.9293 346.56 45.8493C348.74 44.2093 351.12 43.9292 353.64 45.0292C353.77 45.0892 353.91 45.1392 354.13 45.2292L354.12 45.2393Z" fill="white"/>
<path d="M387.93 45.2393C387.93 44.9493 387.93 44.7292 387.93 44.5092C387.93 37.8692 387.93 31.2392 387.93 24.5992C387.93 23.9392 388.08 23.3792 388.74 23.0992C389.41 22.8292 389.88 23.1493 390.37 23.5893C392.48 25.5093 394.62 27.3793 396.73 29.2893C398.67 31.0493 400.55 32.8792 401.94 35.1292C402.11 35.3992 402.27 35.6993 402.32 36.0093C402.43 36.6093 402.07 37.1593 401.51 37.3693C400.96 37.5793 400.31 37.4092 400 36.8792C398.84 34.9092 397.27 33.2893 395.61 31.7693C394.03 30.3193 392.41 28.9293 390.8 27.5093C390.75 27.4593 390.68 27.4393 390.54 27.3693V28.0393C390.54 35.2293 390.54 42.4193 390.54 49.6093C390.54 52.1393 389.03 54.2892 386.6 55.2792C384.13 56.2892 381.28 55.7893 379.56 54.0493C377.27 51.7293 377.61 47.9293 380.37 45.8493C382.55 44.2093 384.93 43.9292 387.45 45.0292C387.58 45.0892 387.72 45.1392 387.94 45.2292L387.93 45.2393Z" fill="white"/>
<path d="M40.26 190.36C40.26 190.36 61.39 229.11 61.52 277.42" stroke="#0E0108" stroke-width="0.5" stroke-linecap="round" stroke-linejoin="round"/>
<path d="M52.6498 193.272C54.2635 186.434 50.029 179.584 43.1918 177.97C36.3546 176.356 29.5038 180.591 27.8901 187.428C26.2763 194.265 30.5108 201.116 37.348 202.73C44.1852 204.343 51.036 200.109 52.6498 193.272Z" fill="white"/>
<path d="M40.26 177.64V203.07" stroke="#789BAE" stroke-width="0.5" stroke-linecap="round" stroke-linejoin="round"/>
<path d="M27.55 190.36H52.98" stroke="#789BAE" stroke-width="0.5" stroke-linecap="round" stroke-linejoin="round"/>
<path d="M31.27 181.36L49.26 199.35" stroke="#789BAE" stroke-width="0.5" stroke-linecap="round" stroke-linejoin="round"/>
<path d="M31.27 199.35L49.26 181.36" stroke="#789BAE" stroke-width="0.5" stroke-linecap="round" stroke-linejoin="round"/>
<path d="M43.28 190.36C43.28 192.03 41.93 193.38 40.26 193.38C38.59 193.38 37.24 192.03 37.24 190.36C37.24 188.69 38.59 187.34 40.26 187.34C41.93 187.34 43.28 188.69 43.28 190.36Z" fill="#789BAE"/>
<path d="M72.9 215.27C72.9 215.27 89.72 246.61 78.77 283.84" stroke="#0E0108" stroke-width="0.5" stroke-linecap="round" stroke-linejoin="round"/>
<path d="M85.2814 218.176C86.8951 211.339 82.6606 204.488 75.8234 202.875C68.9862 201.261 62.1354 205.495 60.5217 212.333C58.9079 219.17 63.1424 226.021 69.9796 227.634C76.8168 229.248 83.6677 225.014 85.2814 218.176Z" fill="#007C76"/>
<path d="M72.9 202.55V227.99" stroke="#789BAE" stroke-width="0.5" stroke-linecap="round" stroke-linejoin="round"/>
<path d="M60.18 215.27H85.61" stroke="#789BAE" stroke-width="0.5" stroke-linecap="round" stroke-linejoin="round"/>
<path d="M63.9 206.28L81.89 224.26" stroke="#789BAE" stroke-width="0.5" stroke-linecap="round" stroke-linejoin="round"/>
<path d="M63.9 224.26L81.89 206.28" stroke="#789BAE" stroke-width="0.5" stroke-linecap="round" stroke-linejoin="round"/>
<path d="M75.91 215.27C75.91 216.94 74.56 218.29 72.89 218.29C71.22 218.29 69.87 216.94 69.87 215.27C69.87 213.6 71.22 212.25 72.89 212.25C74.56 212.25 75.91 213.6 75.91 215.27Z" fill="#789BAE"/>
<path d="M65.55 279.98C65.55 279.98 58.63 260.79 71.54 244.51" stroke="#0E0108" stroke-width="0.5" stroke-linecap="round" stroke-linejoin="round"/>
<path d="M88.0805 248.166C90.1156 241.442 86.3147 234.342 79.5909 232.307C72.8671 230.271 65.7666 234.072 63.7314 240.796C61.6962 247.52 65.4971 254.621 72.221 256.656C78.9448 258.691 86.0453 254.89 88.0805 248.166Z" fill="#007C76"/>
<path d="M75.91 231.8V257.23" stroke="#789BAE" stroke-width="0.5" stroke-linecap="round" stroke-linejoin="round"/>
<path d="M63.2 244.51H88.63" stroke="#789BAE" stroke-width="0.5" stroke-linecap="round" stroke-linejoin="round"/>
<path d="M66.92 235.52L84.91 253.51" stroke="#789BAE" stroke-width="0.5" stroke-linecap="round" stroke-linejoin="round"/>
<path d="M66.92 253.51L84.91 235.52" stroke="#789BAE" stroke-width="0.5" stroke-linecap="round" stroke-linejoin="round"/>
<path d="M78.93 244.51C78.93 246.18 77.58 247.53 75.91 247.53C74.24 247.53 72.89 246.18 72.89 244.51C72.89 242.84 74.24 241.49 75.91 241.49C77.58 241.49 78.93 242.84 78.93 244.51Z" fill="#789BAE"/>
<path d="M36.54 229.28C36.54 229.28 52.31 250.75 49.26 280.78" stroke="#0E0108" stroke-width="0.5" stroke-linecap="round" stroke-linejoin="round"/>
<path d="M45.5384 238.272C50.5059 233.305 50.5059 225.251 45.5384 220.283C40.5709 215.316 32.5171 215.316 27.5496 220.283C22.5821 225.251 22.5821 233.305 27.5496 238.272C32.5171 243.239 40.5709 243.239 45.5384 238.272Z" fill="#007C76"/>
<path d="M36.54 216.56V241.99" stroke="#789BAE" stroke-width="0.5" stroke-linecap="round" stroke-linejoin="round"/>
<path d="M23.82 229.28H49.26" stroke="#789BAE" stroke-width="0.5" stroke-linecap="round" stroke-linejoin="round"/>
<path d="M27.55 220.28L45.53 238.27" stroke="#789BAE" stroke-width="0.5" stroke-linecap="round" stroke-linejoin="round"/>
<path d="M27.55 238.27L45.53 220.28" stroke="#789BAE" stroke-width="0.5" stroke-linecap="round" stroke-linejoin="round"/>
<path d="M39.56 229.28C39.56 230.95 38.21 232.3 36.54 232.3C34.87 232.3 33.52 230.95 33.52 229.28C33.52 227.61 34.87 226.26 36.54 226.26C38.21 226.26 39.56 227.61 39.56 229.28Z" fill="#789BAE"/>
<path d="M36.38 273.41C36.2 274.7 36.1 276.01 36.1 277.35C36.1 292.59 48.45 304.94 63.69 304.94C78.93 304.94 91.28 292.59 91.28 277.35C91.28 276.01 91.18 274.7 91 273.41H36.38Z" fill="#FFFDFE"/>
<path d="M361.76 105.62L393.91 64.6299L423.35 105.62" stroke="black" stroke-linecap="round" stroke-linejoin="round"/>
<path d="M361.76 102.78H423.35L416.18 156.19H368.93L361.76 102.78Z" fill="#FFFDFE"/>
<path d="M420 102.46C420.63 102.46 430.13 105.54 427.6 129.16" stroke="#0E0108" stroke-width="0.5" stroke-linecap="round" stroke-linejoin="round"/>
<path d="M425.05 107.49C425.3 107.17 424.96 106.73 424.59 106.89C421.5 108.16 414.06 111.45 417.04 112.58C419.86 113.65 423.46 109.55 425.05 107.49Z" fill="#0E0108"/>
<path d="M426.02 109.51C425.71 109.26 425.92 108.76 426.32 108.81C429.62 109.3 437.64 110.71 435.02 112.52C432.54 114.24 428.06 111.12 426.02 109.5V109.51Z" fill="#0E0108"/>
<path d="M427.63 115.9C427.32 115.65 427.53 115.15 427.93 115.2C431.23 115.69 439.25 117.1 436.63 118.91C434.15 120.63 429.67 117.51 427.63 115.89V115.9Z" fill="#0E0108"/>
<path d="M427.89 122.95C427.58 122.7 427.79 122.2 428.19 122.25C431.49 122.74 439.51 124.15 436.89 125.96C434.41 127.68 429.93 124.56 427.89 122.94V122.95Z" fill="#0E0108"/>
<path d="M426.91 112.38C427.16 112.06 426.82 111.62 426.45 111.78C423.36 113.05 415.92 116.34 418.9 117.47C421.72 118.54 425.32 114.44 426.91 112.38Z" fill="#0E0108"/>
<path d="M427.94 118.28C428.19 117.96 427.85 117.52 427.48 117.68C424.39 118.95 416.95 122.24 419.93 123.37C422.75 124.44 426.35 120.34 427.94 118.28Z" fill="#0E0108"/>
<path d="M427.94 125.68C428.19 125.36 427.85 124.92 427.48 125.08C424.39 126.35 416.95 129.64 419.93 130.77C422.75 131.84 426.35 127.74 427.94 125.68Z" fill="#0E0108"/>
<path d="M395.22 102.78C395.22 102.78 399.02 91.8199 403.62 95.0999C408.22 98.3799 405.46 130.66 405.46 130.66" stroke="#0E0108" stroke-width="0.5" stroke-linecap="round" stroke-linejoin="round"/>
<path d="M405.06 99.2099C405.31 98.8899 404.97 98.4499 404.6 98.6099C401.51 99.8799 394.07 103.17 397.05 104.3C399.87 105.37 403.47 101.27 405.06 99.2099Z" fill="#0E0108"/>
<path d="M405.97 102.7C405.72 102.38 406.06 101.94 406.43 102.1C409.52 103.37 416.96 106.66 413.98 107.79C411.16 108.86 407.56 104.76 405.97 102.7Z" fill="#0E0108"/>
<path d="M406.45 109.68C406.2 109.36 406.54 108.92 406.91 109.08C410 110.35 417.44 113.64 414.46 114.77C411.64 115.84 408.04 111.74 406.45 109.68Z" fill="#0E0108"/>
<path d="M406.45 115.33C406.2 115.01 406.54 114.57 406.91 114.73C410 116 417.44 119.29 414.46 120.42C411.64 121.49 408.04 117.39 406.45 115.33Z" fill="#0E0108"/>
<path d="M405.97 122.05C405.72 121.73 406.06 121.29 406.43 121.45C409.52 122.72 416.96 126.01 413.98 127.14C411.16 128.21 407.56 124.11 405.97 122.05Z" fill="#0E0108"/>
<path d="M406.2 105.65C406.45 105.33 406.11 104.89 405.74 105.05C402.65 106.32 395.21 109.61 398.19 110.74C401.01 111.81 404.61 107.71 406.2 105.65Z" fill="#0E0108"/>
<path d="M406.27 111.8C406.52 111.48 406.18 111.04 405.81 111.2C402.72 112.47 395.28 115.76 398.26 116.89C401.08 117.96 404.68 113.86 406.27 111.8Z" fill="#0E0108"/>
<path d="M406.27 117.94C406.52 117.62 406.18 117.18 405.81 117.34C402.72 118.61 395.28 121.9 398.26 123.03C401.08 124.1 404.68 120 406.27 117.94Z" fill="#0E0108"/>
<path d="M405.8 125C406.05 124.68 405.71 124.24 405.34 124.4C402.25 125.67 394.81 128.96 397.79 130.09C400.61 131.16 404.21 127.06 405.8 125Z" fill="#0E0108"/>
<path d="M377.26 102.78C377.26 102.78 371.48 93.9798 367.13 98.3198C362.79 102.66 361.75 130.16 361.75 130.16" stroke="#0E0108" stroke-width="0.5" stroke-linecap="round" stroke-linejoin="round"/>
<path d="M362.5 119.14C362.5 119.14 366.6 131.92 368.21 128.28C369.82 124.64 362.5 119.14 362.5 119.14Z" fill="#0E0108"/>
<path d="M363.57 110.92C363.57 110.92 367.67 123.7 369.28 120.06C370.89 116.42 363.57 110.92 363.57 110.92Z" fill="#0E0108"/>
<path d="M364.73 103.85C364.73 103.85 368.83 116.63 370.44 112.99C372.05 109.35 364.73 103.85 364.73 103.85Z" fill="#0E0108"/>
<path d="M361.76 125.77C361.76 125.77 365.86 138.55 367.47 134.91C369.08 131.27 361.76 125.77 361.76 125.77Z" fill="#0E0108"/>
<path d="M362.13 122.25C362.39 121.95 362.08 121.49 361.7 121.62C358.55 122.72 350.94 125.61 353.86 126.9C356.62 128.12 360.44 124.22 362.13 122.25Z" fill="#0E0108"/>
<path d="M363.03 115.53C363.29 115.23 362.98 114.77 362.6 114.9C359.45 116 351.84 118.89 354.76 120.18C357.52 121.4 361.34 117.5 363.03 115.53Z" fill="#0E0108"/>
<path d="M364.12 107.69C364.38 107.39 364.07 106.93 363.69 107.06C360.54 108.16 352.93 111.05 355.84 112.34C358.6 113.56 362.42 109.66 364.11 107.69H364.12Z" fill="#0E0108"/>
<path d="M365.81 101.25C366.12 100.99 365.88 100.49 365.48 100.57C362.2 101.17 354.23 102.86 356.92 104.58C359.46 106.21 363.83 102.94 365.81 101.26V101.25Z" fill="#0E0108"/>
<path d="M380.53 102.78C380.99 102.78 389.16 103.5 387.32 128.01C385.48 152.52 382.6 165.41 382.6 165.41" stroke="#0E0108" stroke-width="0.5" stroke-linecap="round" stroke-linejoin="round"/>
<path d="M383.67 161.87C383.37 161.61 382.91 161.92 383.04 162.3C384.14 165.45 387.03 173.06 388.32 170.15C389.54 167.39 385.64 163.57 383.67 161.88V161.87Z" fill="#0E0108"/>
<path d="M384.67 152.92C384.99 152.68 384.78 152.17 384.39 152.22C381.08 152.63 373.03 153.83 375.6 155.71C378.04 157.49 382.6 154.49 384.67 152.92Z" fill="#0E0108"/>
<path d="M385.63 145.06C385.95 144.82 385.74 144.31 385.35 144.36C382.04 144.77 373.99 145.97 376.56 147.85C379 149.63 383.56 146.63 385.63 145.06Z" fill="#0E0108"/>
<path d="M386.63 136.47C386.95 136.23 386.74 135.72 386.35 135.77C383.04 136.18 374.99 137.38 377.56 139.26C380 141.04 384.56 138.04 386.63 136.47Z" fill="#0E0108"/>
<path d="M387.22 128.85C387.54 128.61 387.33 128.1 386.94 128.15C383.63 128.56 375.58 129.76 378.15 131.64C380.59 133.42 385.15 130.42 387.22 128.85Z" fill="#0E0108"/>
<path d="M387.73 121.42C388.05 121.18 387.84 120.67 387.45 120.72C384.14 121.13 376.09 122.33 378.66 124.21C381.1 125.99 385.66 122.99 387.73 121.42Z" fill="#0E0108"/>
<path d="M387.22 114.82C387.54 114.58 387.33 114.07 386.94 114.12C383.63 114.53 375.58 115.73 378.15 117.61C380.59 119.39 385.15 116.39 387.22 114.82Z" fill="#0E0108"/>
<path d="M384.89 155.1C384.59 154.84 384.13 155.15 384.26 155.53C385.36 158.68 388.25 166.29 389.54 163.38C390.76 160.62 386.86 156.8 384.89 155.11V155.1Z" fill="#0E0108"/>
<path d="M385.74 147.8C385.44 147.54 384.98 147.85 385.11 148.23C386.21 151.38 389.1 158.99 390.39 156.07C391.61 153.31 387.71 149.49 385.74 147.8Z" fill="#0E0108"/>
<path d="M386.69 140.72C386.35 140.51 385.95 140.88 386.13 141.24C387.69 144.19 391.69 151.28 392.52 148.2C393.31 145.29 388.88 142.1 386.68 140.72H386.69Z" fill="#0E0108"/>
<path d="M387.39 131.57C387.05 131.36 386.65 131.73 386.83 132.09C388.39 135.04 392.39 142.13 393.22 139.05C394.01 136.14 389.58 132.95 387.38 131.57H387.39Z" fill="#0E0108"/>
<path d="M387.98 124.42C387.64 124.21 387.24 124.58 387.42 124.94C388.98 127.89 392.98 134.98 393.81 131.9C394.6 128.99 390.17 125.8 387.97 124.42H387.98Z" fill="#0E0108"/>
<path d="M387.96 117.69C387.61 117.5 387.23 117.89 387.43 118.24C389.15 121.1 393.54 127.96 394.2 124.84C394.83 121.89 390.23 118.95 387.96 117.7V117.69Z" fill="#0E0108"/>
<path d="M387.07 111.16C386.68 111.05 386.4 111.52 386.68 111.81C388.99 114.22 394.77 119.95 394.73 116.76C394.7 113.74 389.56 111.89 387.07 111.16Z" fill="#0E0108"/>
</svg>
