<svg width="27" height="54" viewBox="0 0 27 54" fill="none" xmlns="http://www.w3.org/2000/svg">
<path fill-rule="evenodd" clip-rule="evenodd" d="M21.2836 5.22716C21.738 5.9825 21.4962 6.95423 20.7436 7.39758C16.479 9.90968 12.29 12.5552 8.08166 15.2129C7.41756 15.6323 6.75298 16.052 6.08755 16.4715C5.34884 16.9373 4.36355 16.7135 3.88685 15.9718C3.41015 15.23 3.62255 14.2512 4.36127 13.7854C5.02306 13.3682 5.68538 12.9499 6.34841 12.5312C10.554 9.8751 14.7882 7.20098 19.0981 4.66225C19.8507 4.2189 20.8292 4.47182 21.2836 5.22716Z" fill="#7748EF" stroke="#7748EF" stroke-width="5" stroke-linecap="round"/>
<path fill-rule="evenodd" clip-rule="evenodd" d="M8.10379 28.7442C8.04555 27.8713 8.69128 27.1134 9.54607 27.0515C11.0004 26.9461 12.482 26.7486 14.0285 26.5424C14.667 26.4573 15.3166 26.3707 15.9799 26.2885C18.199 26.0135 20.5161 25.7971 22.7622 25.9441C23.617 26 24.2637 26.7533 24.2066 27.6267C24.1494 28.5 23.4101 29.1627 22.5552 29.1067C20.6095 28.9794 18.5288 29.1639 16.3451 29.4345C15.7464 29.5087 15.1346 29.5903 14.5167 29.6726C12.9329 29.8837 11.3083 30.1003 9.75698 30.2127C8.90219 30.2746 8.16203 29.6171 8.10379 28.7442Z" fill="#7748EF" stroke="#7748EF" stroke-width="5" stroke-linecap="round"/>
<path fill-rule="evenodd" clip-rule="evenodd" d="M17.6596 49.8414C17.3557 50.6687 16.4522 51.0885 15.6416 50.7791C11.265 49.1088 7.35744 46.9495 3.7304 43.8598C3.06617 43.294 2.97776 42.2856 3.53293 41.6074C4.0881 40.9293 5.07663 40.8382 5.74086 41.4041C9.05181 44.2245 12.637 46.2167 16.7422 47.7834C17.5527 48.0928 17.9635 49.0142 17.6596 49.8414Z" fill="#7748EF" stroke="#7748EF" stroke-width="5" stroke-linecap="round"/>
</svg>
