<svg width="28" height="23" viewBox="0 0 28 23" fill="none" xmlns="http://www.w3.org/2000/svg">
<path d="M27.9197 3.00016C26.893 3.46683 25.7864 3.7735 24.6397 3.92016C25.813 3.2135 26.7197 2.0935 27.1464 0.746826C26.0397 1.4135 24.813 1.88016 23.5197 2.14683C22.4664 1.00016 20.9864 0.333496 19.3064 0.333496C16.173 0.333496 13.613 2.8935 13.613 6.0535C13.613 6.5068 13.6664 6.9468 13.7597 7.3602C9.013 7.1202 4.78637 4.84016 1.97303 1.38683C1.4797 2.22683 1.1997 3.2135 1.1997 4.2535C1.1997 6.2402 2.1997 8.0002 3.74637 9.0002C2.7997 9.0002 1.9197 8.7335 1.14637 8.3335C1.14637 8.3335 1.14637 8.3335 1.14637 8.3735C1.14637 11.1468 3.1197 13.4668 5.73303 13.9868C5.25303 14.1202 4.74637 14.1868 4.22637 14.1868C3.86637 14.1868 3.50637 14.1468 3.1597 14.0802C3.8797 16.3335 5.97303 18.0135 8.493 18.0535C6.54637 19.6002 4.0797 20.5068 1.38637 20.5068C0.933027 20.5068 0.479697 20.4802 0.0263672 20.4268C2.5597 22.0535 5.57303 23.0002 8.7997 23.0002C19.3064 23.0002 25.0797 14.2802 25.0797 6.7202C25.0797 6.4668 25.0797 6.2268 25.0664 5.9735C26.1864 5.1735 27.1464 4.16016 27.9197 3.00016Z" fill="#F2F5F9"/>
</svg>
